<?xml version="1.0" encoding="UTF-8"?>
<svg width="243px" height="79px" viewBox="0 0 243 79" version="1.1" xmlns="http://www.w3.org/2000/svg" xmlns:xlink="http://www.w3.org/1999/xlink">
    <title>Line</title>
    <g id="Page-1" stroke="none" stroke-width="1" fill="none" fill-rule="evenodd">
        <path id="Line" d="M168.601326,0 C169.332908,0 170.054444,0.170331455 170.708791,0.497505175 L240.282886,35.2845524 C242.610728,36.4484736 243.554273,39.2791072 242.390351,41.6069496 C241.934359,42.5189352 241.194871,43.2584225 240.282886,43.7144153 L170.708791,78.5014625 C168.380949,79.6653837 165.550315,78.7218392 164.386394,76.3939968 C164.05922,75.7396494 163.888889,75.0181137 163.888889,74.2865311 L163.888,47 L7.5,47 C3.35786438,47 0,43.6421356 0,39.5 C0,35.3578644 3.35786438,32 7.5,32 L163.888,32 L163.888889,4.71243665 C163.888889,2.18212439 165.883134,0.117592993 168.385617,0.00484920612 Z" fill="#FFFFFF" fill-rule="nonzero"></path>
    </g>
</svg>